<?xml version="1.0" encoding="utf-8"?>
<!-- Generator: Adobe Illustrator 25.0.1, SVG Export Plug-In . SVG Version: 6.00 Build 0)  -->
<svg version="1.0" id="Ebene_1" xmlns="http://www.w3.org/2000/svg" xmlns:xlink="http://www.w3.org/1999/xlink" x="0px" y="0px"
	 viewBox="0 0 200 200" style="enable-background:new 0 0 200 200;" xml:space="preserve">
<path d="M157.1,69.9c20.2,2.2,38.3,7.5,42.1,13.5c3.7,6-6.8,12.8-16.4,19.1c-9.7,6.2-18.4,12-33.5,17.5c-15,5.5-36.3,10.8-59.6,11.6
	c-23.3,0.8-48.5-2.8-62.7-8.4C12.8,117.6,9.6,110,5.9,103.3c-3.7-6.7-8-12.6-4.6-18.3c3.4-5.8,14.7-11.4,31-14
	c16.4-2.6,38-2.2,60-2.4C114.4,68.4,136.7,67.6,157.1,69.9z"/>
</svg>
