<?xml version="1.0" encoding="utf-8"?>
<!-- Generator: Adobe Illustrator 25.0.1, SVG Export Plug-In . SVG Version: 6.00 Build 0)  -->
<svg version="1.0" id="Ebene_1" xmlns="http://www.w3.org/2000/svg" xmlns:xlink="http://www.w3.org/1999/xlink" x="0px" y="0px"
	 viewBox="0 0 200 200" style="enable-background:new 0 0 200 200;" xml:space="preserve">
<path d="M150.8,10.7c17.7,6.6,33.6,22.2,37,40.1c3.2,17.7-6,37.9-14.3,56.6c-8.5,18.5-16.1,35.7-29.4,52.1
	c-13.1,16.4-31.8,32.1-52.2,34.4c-20.4,2.4-42.5-8.4-55-25c-12.6-16.6-15.4-39-18.7-58.9c-3.2-19.9-7-37.4-4.1-54.4
	c3-17.2,12.9-33.8,27.2-41.7C55.7,6.1,74.6,7.1,94,6.6S133,3.9,150.8,10.7z"/>
</svg>
