<?xml version="1.0" encoding="utf-8"?>
<!-- Generator: Adobe Illustrator 25.0.1, SVG Export Plug-In . SVG Version: 6.00 Build 0)  -->
<svg version="1.0" id="Ebene_1" xmlns="http://www.w3.org/2000/svg" xmlns:xlink="http://www.w3.org/1999/xlink" x="0px" y="0px"
	 viewBox="0 0 200 200" style="enable-background:new 0 0 200 200;" xml:space="preserve">
<radialGradient id="SVGID_1_" cx="100.7362" cy="100" r="88.6608" gradientTransform="matrix(1 0 0 1.3118 0 -31.1775)" gradientUnits="userSpaceOnUse">
	<stop  offset="4.475343e-07" style="stop-color:#000000"/>
	<stop  offset="0.1045" style="stop-color:#040404;stop-opacity:0.8772"/>
	<stop  offset="0.2111" style="stop-color:#101010;stop-opacity:0.752"/>
	<stop  offset="0.3185" style="stop-color:#252525;stop-opacity:0.6257"/>
	<stop  offset="0.4267" style="stop-color:#414141;stop-opacity:0.4986"/>
	<stop  offset="0.5355" style="stop-color:#666666;stop-opacity:0.3707"/>
	<stop  offset="0.6448" style="stop-color:#949494;stop-opacity:0.2423"/>
	<stop  offset="0.7524" style="stop-color:#C8C8C8;stop-opacity:0.1159"/>
	<stop  offset="0.851" style="stop-color:#FFFFFF;stop-opacity:0"/>
</radialGradient>
<path style="fill:url(#SVGID_1_);" d="M150.8,10.7c17.7,6.6,33.6,22.2,37,40.1c3.2,17.7-6,37.9-14.3,56.6
	c-8.5,18.5-16.1,35.7-29.4,52.1c-13.1,16.4-31.8,32.1-52.2,34.4c-20.4,2.4-42.5-8.4-55-25c-12.6-16.6-15.4-39-18.7-58.9
	c-3.2-19.9-7-37.4-4.1-54.4c3-17.2,12.9-33.8,27.2-41.7C55.7,6.1,74.6,7.1,94,6.6S133,3.9,150.8,10.7z"/>
</svg>
